{
    "asset" : {
        "generator" : "Khronos glTF Blender I/O v3.4.50",
        "version" : "2.0"
    },
    "scene" : 0,
    "scenes" : [
        {
            "name" : "Scene",
            "nodes" : [
                1
            ]
        }
    ],
    "nodes" : [
        {
            "mesh" : 0,
            "name" : "blade_low",
            "translation" : [
                0,
                -0.024349400773644447,
                0.10844778269529343
            ]
        },
        {
            "children" : [
                0
            ],
            "mesh" : 1,
            "name" : "handle_low",
            "scale" : [
                100,
                100,
                100
            ]
        }
    ],
    "materials" : [
        {
            "doubleSided" : true,
            "name" : "material.001",
            "normalTexture" : {
                "index" : 0
            },
            "pbrMetallicRoughness" : {
                "baseColorTexture" : {
                    "index" : 1
                },
                "metallicRoughnessTexture" : {
                    "index" : 2
                }
            }
        }
    ],
    "meshes" : [
        {
            "name" : "Blade_Low",
            "primitives" : [
                {
                    "attributes" : {
                        "POSITION" : 0,
                        "TEXCOORD_0" : 1,
                        "NORMAL" : 2
                    },
                    "indices" : 3,
                    "material" : 0
                }
            ]
        },
        {
            "name" : "Handle_Low",
            "primitives" : [
                {
                    "attributes" : {
                        "POSITION" : 4,
                        "TEXCOORD_0" : 5,
                        "NORMAL" : 6
                    },
                    "indices" : 7,
                    "material" : 0
                }
            ]
        }
    ],
    "textures" : [
        {
            "sampler" : 0,
            "source" : 0
        },
        {
            "sampler" : 0,
            "source" : 1
        },
        {
            "sampler" : 0,
            "source" : 2
        }
    ],
    "images" : [
        {
            "mimeType" : "image/png",
            "name" : "Material_Normal_norm",
            "uri" : "Material_Normal_norm.png"
        },
        {
            "mimeType" : "image/png",
            "name" : "Material_BaseColor",
            "uri" : "Material_BaseColor.png"
        },
        {
            "mimeType" : "image/png",
            "name" : "Material_metal-Material_Roughness",
            "uri" : "Material_metal-Material_Roughness.png"
        }
    ],
    "accessors" : [
        {
            "bufferView" : 0,
            "componentType" : 5126,
            "count" : 974,
            "max" : [
                0.6388448476791382,
                64.15885925292969,
                4.693626403808594
            ],
            "min" : [
                -0.6388448476791382,
                0.024349400773644447,
                -5.931756019592285
            ],
            "type" : "VEC3"
        },
        {
            "bufferView" : 1,
            "componentType" : 5126,
            "count" : 974,
            "type" : "VEC2"
        },
        {
            "bufferView" : 2,
            "componentType" : 5126,
            "count" : 974,
            "type" : "VEC3"
        },
        {
            "bufferView" : 3,
            "componentType" : 5123,
            "count" : 5172,
            "type" : "SCALAR"
        },
        {
            "bufferView" : 4,
            "componentType" : 5126,
            "count" : 1549,
            "max" : [
                2.8925087451934814,
                104.1165771484375,
                6.545672416687012
            ],
            "min" : [
                -2.8925087451934814,
                52.5035514831543,
                -6.545672416687012
            ],
            "type" : "VEC3"
        },
        {
            "bufferView" : 5,
            "componentType" : 5126,
            "count" : 1549,
            "type" : "VEC2"
        },
        {
            "bufferView" : 6,
            "componentType" : 5126,
            "count" : 1549,
            "type" : "VEC3"
        },
        {
            "bufferView" : 7,
            "componentType" : 5123,
            "count" : 6648,
            "type" : "SCALAR"
        }
    ],
    "bufferViews" : [
        {
            "buffer" : 0,
            "byteLength" : 11688,
            "byteOffset" : 0,
            "target" : 34962
        },
        {
            "buffer" : 0,
            "byteLength" : 7792,
            "byteOffset" : 11688,
            "target" : 34962
        },
        {
            "buffer" : 0,
            "byteLength" : 11688,
            "byteOffset" : 19480,
            "target" : 34962
        },
        {
            "buffer" : 0,
            "byteLength" : 10344,
            "byteOffset" : 31168,
            "target" : 34963
        },
        {
            "buffer" : 0,
            "byteLength" : 18588,
            "byteOffset" : 41512,
            "target" : 34962
        },
        {
            "buffer" : 0,
            "byteLength" : 12392,
            "byteOffset" : 60100,
            "target" : 34962
        },
        {
            "buffer" : 0,
            "byteLength" : 18588,
            "byteOffset" : 72492,
            "target" : 34962
        },
        {
            "buffer" : 0,
            "byteLength" : 13296,
            "byteOffset" : 91080,
            "target" : 34963
        }
    ],
    "samplers" : [
        {
            "magFilter" : 9729,
            "minFilter" : 9987
        }
    ],
    "buffers" : [
        {
            "byteLength" : 104376,
            "uri" : "SlothSword.bin"
        }
    ]
}
